<svg width="16" height="16" viewBox="0 0 16 16" fill="none" xmlns="http://www.w3.org/2000/svg">
<path d="M12 1.33398H6C5.26667 1.33398 4.66667 1.93398 4.66667 2.66732V10.6673C4.66667 11.4007 5.26667 12.0007 6 12.0007H12C12.7333 12.0007 13.3333 11.4007 13.3333 10.6673V2.66732C13.3333 1.93398 12.7333 1.33398 12 1.33398ZM12 10.6673H6V2.66732H12V10.6673ZM2 10.0007V8.66732H3.33333V10.0007H2ZM2 6.33398H3.33333V7.66732H2V6.33398ZM6.66667 13.334H8V14.6673H6.66667V13.334ZM2 12.334V11.0007H3.33333V12.334H2ZM3.33333 14.6673C2.6 14.6673 2 14.0673 2 13.334H3.33333V14.6673ZM5.66667 14.6673H4.33333V13.334H5.66667V14.6673ZM9 14.6673V13.334H10.3333C10.3333 14.0673 9.73333 14.6673 9 14.6673ZM3.33333 4.00065V5.33398H2C2 4.60065 2.6 4.00065 3.33333 4.00065Z" fill="#7C7C7C"/>
</svg>
