<svg width="17" height="16" viewBox="0 0 17 16" fill="none" xmlns="http://www.w3.org/2000/svg">
<path d="M9.83325 7.33398V10.6673M3.16659 4.00065H13.8333L12.7799 13.4806C12.7438 13.8069 12.5886 14.1084 12.3441 14.3273C12.0995 14.5463 11.7828 14.6673 11.4546 14.6673H5.54525C5.21701 14.6673 4.90029 14.5463 4.65575 14.3273C4.41121 14.1084 4.25603 13.8069 4.21992 13.4806L3.16659 4.00065ZM5.39658 2.09865C5.50442 1.86996 5.67506 1.67665 5.88859 1.54126C6.10212 1.40587 6.34975 1.33398 6.60259 1.33398H10.3973C10.6502 1.33385 10.898 1.40568 11.1116 1.54108C11.3253 1.67648 11.496 1.86986 11.6039 2.09865L12.4999 4.00065H4.49992L5.39658 2.09865V2.09865ZM1.83325 4.00065H15.1666H1.83325ZM7.16658 7.33398V10.6673V7.33398Z" stroke="#7C7C7C" stroke-linecap="round" stroke-linejoin="round"/>
</svg>
