<svg width="17" height="16" viewBox="0 0 17 16" fill="none" xmlns="http://www.w3.org/2000/svg">
<g clip-path="url(#clip0_4181_12621)">
<path d="M16.047 3.061C16.1816 3.11903 16.2962 3.21521 16.3767 3.33766C16.4572 3.46011 16.5001 3.60346 16.5 3.75V12.25C16.4995 12.3963 16.4563 12.5393 16.3757 12.6613C16.295 12.7834 16.1805 12.8793 16.0462 12.9372C15.9118 12.9951 15.7635 13.0124 15.6194 12.9872C15.4753 12.9619 15.3417 12.8951 15.235 12.795L10.735 8.545C10.6609 8.4749 10.6018 8.39042 10.5614 8.29671C10.5211 8.203 10.5002 8.10203 10.5002 8C10.5002 7.89797 10.5211 7.797 10.5614 7.70329C10.6018 7.60958 10.6609 7.5251 10.735 7.455L15.235 3.205C15.3415 3.10428 15.4751 3.03697 15.6194 3.01138C15.7637 2.98579 15.9124 3.00304 16.047 3.061ZM0.5 12.25V3.75C0.500495 3.6037 0.543709 3.46074 0.624335 3.33866C0.704961 3.21658 0.819488 3.12071 0.953847 3.06283C1.08821 3.00494 1.23655 2.98756 1.38065 3.01282C1.52475 3.03807 1.65834 3.10487 1.765 3.205L6.265 7.455C6.33914 7.5251 6.39821 7.60958 6.43857 7.70329C6.47894 7.797 6.49976 7.89797 6.49976 8C6.49976 8.10203 6.47894 8.203 6.43857 8.29671C6.39821 8.39042 6.33914 8.4749 6.265 8.545L1.765 12.795C1.6585 12.8956 1.52487 12.9628 1.38062 12.9883C1.23636 13.0138 1.08779 12.9965 0.953247 12.9386C0.818706 12.8806 0.704086 12.7845 0.623539 12.6621C0.542992 12.5398 0.500045 12.3965 0.5 12.25ZM2 5.49V10.51L4.658 8L2 5.49ZM12.342 8L15 10.51V5.49L12.342 8ZM8.5 4C8.69891 4 8.88968 4.07902 9.03033 4.21967C9.17098 4.36032 9.25 4.55109 9.25 4.75V5.25C9.25 5.44891 9.17098 5.63968 9.03033 5.78033C8.88968 5.92098 8.69891 6 8.5 6C8.30109 6 8.11032 5.92098 7.96967 5.78033C7.82902 5.63968 7.75 5.44891 7.75 5.25V4.75C7.75 4.55109 7.82902 4.36032 7.96967 4.21967C8.11032 4.07902 8.30109 4 8.5 4ZM9.25 1.75V2.25C9.25 2.44891 9.17098 2.63968 9.03033 2.78033C8.88968 2.92098 8.69891 3 8.5 3C8.30109 3 8.11032 2.92098 7.96967 2.78033C7.82902 2.63968 7.75 2.44891 7.75 2.25V1.75C7.75 1.55109 7.82902 1.36032 7.96967 1.21967C8.11032 1.07902 8.30109 1 8.5 1C8.69891 1 8.88968 1.07902 9.03033 1.21967C9.17098 1.36032 9.25 1.55109 9.25 1.75ZM9.25 7.75V8.25C9.25 8.44891 9.17098 8.63968 9.03033 8.78033C8.88968 8.92098 8.69891 9 8.5 9C8.30109 9 8.11032 8.92098 7.96967 8.78033C7.82902 8.63968 7.75 8.44891 7.75 8.25V7.75C7.75 7.55109 7.82902 7.36032 7.96967 7.21967C8.11032 7.07902 8.30109 7 8.5 7C8.69891 7 8.88968 7.07902 9.03033 7.21967C9.17098 7.36032 9.25 7.55109 9.25 7.75ZM8.5 10C8.69891 10 8.88968 10.079 9.03033 10.2197C9.17098 10.3603 9.25 10.5511 9.25 10.75V11.25C9.25 11.4489 9.17098 11.6397 9.03033 11.7803C8.88968 11.921 8.69891 12 8.5 12C8.30109 12 8.11032 11.921 7.96967 11.7803C7.82902 11.6397 7.75 11.4489 7.75 11.25V10.75C7.75 10.5511 7.82902 10.3603 7.96967 10.2197C8.11032 10.079 8.30109 10 8.5 10ZM8.5 13C8.69891 13 8.88968 13.079 9.03033 13.2197C9.17098 13.3603 9.25 13.5511 9.25 13.75V14.25C9.25 14.4489 9.17098 14.6397 9.03033 14.7803C8.88968 14.921 8.69891 15 8.5 15C8.30109 15 8.11032 14.921 7.96967 14.7803C7.82902 14.6397 7.75 14.4489 7.75 14.25V13.75C7.75 13.5511 7.82902 13.3603 7.96967 13.2197C8.11032 13.079 8.30109 13 8.5 13Z" fill="#7C7C7C"/>
</g>
<defs>
<clipPath id="clip0_4181_12621">
<rect width="16" height="16" fill="white" transform="translate(0.5)"/>
</clipPath>
</defs>
</svg>
