<svg width="16" height="16" viewBox="0 0 16 16" fill="none" xmlns="http://www.w3.org/2000/svg">
<g clip-path="url(#clip0_4181_12625)">
<path d="M12.939 15.547C12.881 15.6816 12.7848 15.7962 12.6623 15.8767C12.5399 15.9572 12.3965 16.0001 12.25 16L3.75 16C3.6037 15.9995 3.46073 15.9563 3.33866 15.8757C3.21658 15.795 3.12071 15.6805 3.06283 15.5462C3.00494 15.4118 2.98756 15.2635 3.01282 15.1194C3.03807 14.9752 3.10487 14.8417 3.205 14.735L7.455 10.235C7.5251 10.1609 7.60958 10.1018 7.70329 10.0614C7.797 10.0211 7.89797 10.0002 8 10.0002C8.10203 10.0002 8.20299 10.0211 8.2967 10.0614C8.39041 10.1018 8.4749 10.1609 8.545 10.235L12.795 14.735C12.8957 14.8415 12.963 14.9751 12.9886 15.1194C13.0142 15.2637 12.997 15.4124 12.939 15.547ZM3.75 -4.91753e-07L12.25 -1.20206e-07C12.3963 0.000494784 12.5393 0.0437093 12.6613 0.124335C12.7834 0.204961 12.8793 0.319488 12.9372 0.453847C12.9951 0.588206 13.0124 0.736547 12.9872 0.880648C12.9619 1.02475 12.8951 1.15834 12.795 1.265L8.545 5.765C8.4749 5.83914 8.39041 5.89821 8.2967 5.93857C8.203 5.97894 8.10203 5.99976 8 5.99976C7.89797 5.99976 7.797 5.97894 7.70329 5.93857C7.60958 5.89821 7.5251 5.83914 7.455 5.765L3.205 1.265C3.10441 1.1585 3.0372 1.02487 3.01169 0.880616C2.98618 0.736358 3.00347 0.587787 3.06143 0.453246C3.1194 0.318705 3.2155 0.204085 3.33786 0.123538C3.46023 0.0429914 3.6035 4.4286e-05 3.75 -4.91753e-07ZM10.51 1.5L5.49 1.5L8 4.158L10.51 1.5ZM8 11.842L5.49 14.5L10.51 14.5L8 11.842ZM12 8C12 8.19891 11.921 8.38968 11.7803 8.53033C11.6397 8.67098 11.4489 8.75 11.25 8.75L10.75 8.75C10.5511 8.75 10.3603 8.67098 10.2197 8.53033C10.079 8.38968 10 8.19891 10 8C10 7.80109 10.079 7.61032 10.2197 7.46967C10.3603 7.32902 10.5511 7.25 10.75 7.25L11.25 7.25C11.4489 7.25 11.6397 7.32902 11.7803 7.46967C11.921 7.61032 12 7.80109 12 8ZM14.25 8.75L13.75 8.75C13.5511 8.75 13.3603 8.67098 13.2197 8.53033C13.079 8.38968 13 8.19891 13 8C13 7.80109 13.079 7.61032 13.2197 7.46967C13.3603 7.32902 13.5511 7.25 13.75 7.25L14.25 7.25C14.4489 7.25 14.6397 7.32902 14.7803 7.46967C14.921 7.61032 15 7.80109 15 8C15 8.19891 14.921 8.38968 14.7803 8.53033C14.6397 8.67098 14.4489 8.75 14.25 8.75ZM8.25 8.75L7.75 8.75C7.55109 8.75 7.36032 8.67098 7.21967 8.53033C7.07902 8.38968 7 8.19891 7 8C7 7.80109 7.07902 7.61032 7.21967 7.46967C7.36032 7.32902 7.55109 7.25 7.75 7.25L8.25 7.25C8.44891 7.25 8.63968 7.32902 8.78033 7.46967C8.92098 7.61032 9 7.80109 9 8C9 8.19891 8.92098 8.38968 8.78033 8.53033C8.63968 8.67098 8.44891 8.75 8.25 8.75ZM6 8C6 8.19891 5.92098 8.38968 5.78033 8.53033C5.63968 8.67098 5.44891 8.75 5.25 8.75L4.75 8.75C4.55109 8.75 4.36032 8.67098 4.21967 8.53033C4.07902 8.38968 4 8.19891 4 8C4 7.80109 4.07902 7.61032 4.21967 7.46967C4.36032 7.32902 4.55109 7.25 4.75 7.25L5.25 7.25C5.44891 7.25 5.63968 7.32902 5.78033 7.46967C5.92098 7.61032 6 7.80109 6 8ZM3 8C3 8.19891 2.92098 8.38968 2.78033 8.53033C2.63968 8.67098 2.44891 8.75 2.25 8.75L1.75 8.75C1.55109 8.75 1.36032 8.67098 1.21967 8.53033C1.07902 8.38968 1 8.19891 1 8C1 7.80109 1.07902 7.61032 1.21967 7.46967C1.36032 7.32902 1.55109 7.25 1.75 7.25L2.25 7.25C2.44891 7.25 2.63968 7.32902 2.78033 7.46967C2.92098 7.61032 3 7.80109 3 8Z" fill="#7C7C7C"/>
</g>
<defs>
<clipPath id="clip0_4181_12625">
<rect width="16" height="16" fill="white" transform="translate(16) rotate(90)"/>
</clipPath>
</defs>
</svg>
