<svg width="17" height="16" viewBox="0 0 17 16" fill="none" xmlns="http://www.w3.org/2000/svg">
<path d="M7.83333 10V3.33333H3.16667C2.98986 3.33333 2.82029 3.2631 2.69526 3.13807C2.57024 3.01305 2.5 2.84348 2.5 2.66667C2.5 2.48986 2.57024 2.32029 2.69526 2.19526C2.82029 2.07024 2.98986 2 3.16667 2H13.8333C14.0101 2 14.1797 2.07024 14.3047 2.19526C14.4298 2.32029 14.5 2.48986 14.5 2.66667C14.5 2.84348 14.4298 3.01305 14.3047 3.13807C14.1797 3.2631 14.0101 3.33333 13.8333 3.33333H9.16667V10H10.66C10.76 10 10.858 10.028 10.9407 10.08C11.174 10.226 11.2367 10.522 11.0813 10.7407L8.92133 13.7873C8.88385 13.8403 8.83627 13.8854 8.78133 13.92C8.66908 13.9904 8.53441 14.016 8.40417 13.9915C8.27393 13.967 8.1577 13.8944 8.07867 13.788L5.91867 10.7413C5.86327 10.6639 5.83343 10.5712 5.83333 10.476C5.83333 10.2127 6.06 9.99933 6.34 9.99933H7.83333V10ZM13.8333 6C14.0101 6 14.1797 6.07024 14.3047 6.19526C14.4298 6.32029 14.5 6.48986 14.5 6.66667C14.5 6.84348 14.4298 7.01305 14.3047 7.13807C14.1797 7.2631 14.0101 7.33333 13.8333 7.33333H10.5V6H13.8333ZM5.83333 6H6.5V7.33333H3.16667C2.98986 7.33333 2.82029 7.2631 2.69526 7.13807C2.57024 7.01305 2.5 6.84348 2.5 6.66667C2.5 6.48986 2.57024 6.32029 2.69526 6.19526C2.82029 6.07024 2.98986 6 3.16667 6H5.83333Z" fill="#7C7C7C"/>
</svg>
