<svg width="17" height="16" viewBox="0 0 17 16" fill="none" xmlns="http://www.w3.org/2000/svg">
<path d="M9.16667 6L9.16667 12.6667L13.8333 12.6667C14.0101 12.6667 14.1797 12.7369 14.3047 12.8619C14.4298 12.987 14.5 13.1565 14.5 13.3333C14.5 13.5101 14.4298 13.6797 14.3047 13.8047C14.1797 13.9298 14.0101 14 13.8333 14L3.16667 14C2.98986 14 2.82029 13.9298 2.69526 13.8047C2.57024 13.6797 2.5 13.5101 2.5 13.3333C2.5 13.1565 2.57024 12.987 2.69526 12.8619C2.82029 12.7369 2.98986 12.6667 3.16667 12.6667L7.83333 12.6667L7.83333 6L6.34 6C6.24 6 6.142 5.972 6.05933 5.92C5.826 5.774 5.76333 5.478 5.91867 5.25933L8.07867 2.21267C8.11615 2.15966 8.16373 2.11458 8.21867 2.08C8.33092 2.00957 8.46559 1.98404 8.59583 2.0085C8.72607 2.03297 8.8423 2.10563 8.92133 2.212L11.0813 5.25867C11.1367 5.33606 11.1666 5.42882 11.1667 5.524C11.1667 5.78733 10.94 6.00067 10.66 6.00067L9.16667 6.00067L9.16667 6ZM3.16667 10C2.98986 10 2.82029 9.92976 2.69526 9.80474C2.57024 9.67971 2.5 9.51014 2.5 9.33333C2.5 9.15652 2.57024 8.98695 2.69526 8.86193C2.82029 8.7369 2.98986 8.66667 3.16667 8.66667L6.5 8.66667L6.5 10L3.16667 10ZM11.1667 10L10.5 10L10.5 8.66667L13.8333 8.66667C14.0101 8.66667 14.1797 8.7369 14.3047 8.86193C14.4298 8.98695 14.5 9.15652 14.5 9.33333C14.5 9.51014 14.4298 9.67971 14.3047 9.80474C14.1797 9.92976 14.0101 10 13.8333 10L11.1667 10Z" fill="#7C7C7C"/>
</svg>
