<svg width="17" height="16" viewBox="0 0 17 16" fill="none" xmlns="http://www.w3.org/2000/svg">
<path d="M13 5.25H10.75V3.5H11.75V0.5H8.75V1.5H4V0.5H1V3.5H2V8.25H1V11.25H4V10.25H6.25V12.5H5.25V15.5H8.25V14.5H13V15.5H16V12.5H15V7.25H16V4.25H13V5.25ZM9.75 1.5H10.75V2.5H9.75V1.5ZM10.75 9.25V10.25H9.75V9.25H10.75ZM2 1.5H3V2.5H2V1.5ZM3 10.25H2V9.25H3V10.25ZM4 9.25V8.25H3V3.5H4V2.5H8.75V3.5H9.75V8.25H8.75V9.25H4ZM7.25 14.5H6.25V13.5H7.25V14.5ZM15 14.5H14V13.5H15V14.5ZM14 5.25H15V6.25H14V5.25ZM14 12.5H13V13.5H8.25V12.5H7.25V10.25H8.75V11.25H11.75V8.25H10.75V6.25H13V7.25H14V12.5Z" fill="#7C7C7C"/>
</svg>
